HIERARCHY
ROOT Hips
{
    OFFSET 0.000000 0.000000 0.000000
    CHANNELS 6 Xposition Yposition Zposition Zrotation Xrotation Yrotation
    JOINT Spine
    {
        OFFSET -0.000000 14.517291 0.000000
        CHANNELS 3 Zrotation Xrotation Yrotation
        JOINT Spine1
        {
            OFFSET -0.000000 37.558300 0.000000
            CHANNELS 3 Zrotation Xrotation Yrotation
            JOINT Neck
            {
                OFFSET -0.000000 37.404057 3.400369
                CHANNELS 3 Zrotation Xrotation Yrotation
                JOINT Head
                {
                    OFFSET -0.000000 24.785618 -3.540803
                    CHANNELS 3 Zrotation Xrotation Yrotation
                    End Site
                    {
                        OFFSET -0.000000 35.408028 0.000000
                    }
                }
            }
            JOINT LeftShoulder
            {
                OFFSET 6.992933 33.973492 -0.192664
                CHANNELS 3 Zrotation Xrotation Yrotation
                JOINT LeftArm
                {
                    OFFSET 21.527611 0.000000 0.000000
                    CHANNELS 3 Zrotation Xrotation Yrotation
                    JOINT LeftForeArm
                    {
                        OFFSET 56.353916 0.000000 0.000000
                        CHANNELS 3 Zrotation Xrotation Yrotation
                        JOINT LeftHand
                        {
                            OFFSET 47.774071 0.000000 0.000000
                            CHANNELS 3 Zrotation Xrotation Yrotation
                            End Site
                            {
                                OFFSET 26.556021 0.000000 0.000000
                            }
                        }
                    }
                }
            }
            JOINT RightShoulder
            {
                OFFSET -7.065357 33.973492 -0.192664
                CHANNELS 3 Zrotation Xrotation Yrotation
                JOINT RightArm
                {
                    OFFSET -21.527611 0.000000 0.000000
                    CHANNELS 3 Zrotation Xrotation Yrotation
                    JOINT RightForeArm
                    {
                        OFFSET -56.353916 0.000000 0.000000
                        CHANNELS 3 Zrotation Xrotation Yrotation
                        JOINT RightHand
                        {
                            OFFSET -47.774071 0.000000 0.000000
                            CHANNELS 3 Zrotation Xrotation Yrotation
                            End Site
                            {
                                OFFSET -26.556021 0.000000 0.000000
                            }
                        }
                    }
                }
            }
        }
    }
    JOINT LeftUpLeg
    {
        OFFSET 17.704014 0.000000 0.000000
        CHANNELS 3 Zrotation Xrotation Yrotation
        JOINT LeftLeg
        {
            OFFSET -0.000000 -81.181816 0.000000
            CHANNELS 3 Zrotation Xrotation Yrotation
            JOINT LeftFoot
            {
                OFFSET -0.000000 -62.821102 0.000000
                CHANNELS 3 Zrotation Xrotation Yrotation
                JOINT LeftToeBase
                {
                    OFFSET -0.000000 -11.507608 26.556021
                    CHANNELS 3 Zrotation Xrotation Yrotation
                    End Site
                    {
                        OFFSET -0.000000 0.000000 7.081605
                    }
                }
            }
        }
    }
    JOINT RightUpLeg
    {
        OFFSET -17.704014 0.000000 0.000000
        CHANNELS 3 Zrotation Xrotation Yrotation
        JOINT RightLeg
        {
            OFFSET -0.000000 -81.181816 0.000000
            CHANNELS 3 Zrotation Xrotation Yrotation
            JOINT RightFoot
            {
                OFFSET -0.000000 -62.821102 0.000000
                CHANNELS 3 Zrotation Xrotation Yrotation
                JOINT RightToeBase
                {
                    OFFSET -0.000000 -11.507608 26.556021
                    CHANNELS 3 Zrotation Xrotation Yrotation
                    End Site
                    {
                        OFFSET -0.000000 0.000000 7.081605
                    }
                }
            }
        }
    }
}
MOTION
Frames:    4
Frame Time:    0.008333
-3.244105    153.881454    -16.478453    -0.876438    -4.595613    -12.188073    4.554665    0.535807    9.964587    -2.251916    0.667444    3.342456    6.676428    -4.161788    0.832290    -1.606100    9.497767    -0.471298    -0.084250    3.326905    -8.142899    -43.509666    11.747756    -41.900940    -1.656958    -33.391575    -118.402252    -5.113355    -35.471050    -5.850094    -12.877805    1.482867    9.334653    36.963451    -14.566689    85.385368    1.368032    -17.330372    20.202381    12.551328    -12.843308    42.413536    14.944126    -22.506491    -9.851441    -13.649888    24.116476    -12.116520    -7.158043    -1.774288    37.276714    0.000000    0.000000    0.000000    -7.055816    10.420762    -0.626015    3.401215    25.940096    2.164524    1.342365    -30.651861    -0.413048    0.000000    0.000000    0.000000    
-3.446094    153.803802    -16.462526    -0.898179    -4.578375    -11.271157    4.498655    0.553389    10.004932    -2.272625    0.634469    3.355513    6.378740    -4.158084    0.469115    -1.258266    9.368287    -0.774185    0.028323    3.301946    -8.126181    -43.352806    12.065171    -42.275669    -1.947061    -32.973221    -118.909439    -4.935226    -35.496452    -5.812950    -12.888752    1.352848    9.317674    36.802109    -15.009050    84.823425    1.411934    -17.300455    19.664116    12.451651    -12.850350    42.426727    14.761304    -22.851501    -10.216156    -13.567300    24.219776    -12.446190    -7.244543    -1.680515    37.114346    0.000000    0.000000    0.000000    -6.751624    10.662579    -1.154393    3.529569    25.900875    1.971712    1.142142    -30.722198    -0.734115    0.000000    0.000000    0.000000    
-3.656514    153.735153    -16.459318    -0.918397    -4.533113    -10.338564    4.381241    0.611201    10.098916    -2.180087    0.505635    3.384454    6.020475    -4.175806    0.080409    -0.924351    9.277691    -1.093308    0.074927    3.278193    -8.185710    -43.200008    12.370130    -42.611702    -2.256617    -32.478752    -119.464142    -4.639459    -35.499786    -5.592473    -13.000140    1.251353    9.148164    36.582409    -15.309801    84.317673    1.259318    -17.387362    19.055111    12.439838    -12.914615    42.398544    14.576412    -23.213503    -10.694269    -13.515069    24.259430    -12.689968    -7.398694    -1.631353    37.010311    0.000000    0.000000    0.000000    -6.417484    10.856208    -1.687131    3.625910    25.883974    1.734540    1.010231    -30.767986    -0.993887    0.000000    0.000000    0.000000    
-3.877365    153.667542    -16.446341    -0.946515    -4.496571    -9.371020    4.342208    0.541268    10.208716    -2.239263    0.515328    3.420512    5.765648    -4.018487    -0.340413    -0.549885    9.045598    -1.453822    0.227837    3.298980    -8.371253    -43.032677    12.590285    -42.971062    -2.583839    -31.961184    -119.932968    -4.410412    -35.506702    -5.450984    -12.919839    1.153352    9.120098    36.101990    -15.669494    83.585304    1.038779    -17.557045    18.453266    12.420852    -13.038438    42.523293    14.394616    -23.571808    -11.204653    -13.489805    24.294031    -12.965971    -7.479037    -1.495171    36.870285    0.000000    0.000000    0.000000    -6.055916    11.070488    -2.294981    3.681330    25.850473    1.568074    0.885514    -30.804739    -1.278146    0.000000    0.000000    0.000000    
